<svg xmlns="http://www.w3.org/2000/svg" version="1.1" xmlns:xlink="http://www.w3.org/1999/xlink" xmlns:svgjs="http://svgjs.dev/svgjs" width="1440" height="560" preserveAspectRatio="none" viewBox="0 0 1440 560"><g mask="url(&quot;#SvgjsMask1001&quot;)" fill="none"><rect width="1440" height="560" x="0" y="0" fill="rgba(45, 93, 175, 1)"></rect><path d="M0,431.312C82.259,424.521,158.239,397.877,232.354,361.549C315.106,320.987,416.503,291.52,455.525,208.031C494.575,124.481,457.654,26.198,430.249,-61.861C406.122,-139.389,366.43,-210.54,307.786,-266.698C252.665,-319.482,178.425,-339.057,108.603,-369.869C27.259,-405.765,-47.556,-473.44,-135.785,-462.442C-226.897,-451.085,-306.563,-386.531,-359.512,-311.519C-410.187,-239.729,-422.611,-148.155,-419.625,-60.333C-416.964,17.93,-369.368,82.968,-343.585,156.91C-314.512,240.287,-327.387,346.96,-258.391,402.064C-189.26,457.275,-88.172,438.591,0,431.312" fill="#244a8c"></path><path d="M1440 1002.288C1524.272 1003.761 1609.842 979.4929999999999 1676.171 927.489 1739.741 877.648 1773.8319999999999 800.338 1796.4769999999999 722.798 1816.921 652.792 1800.512 581.353 1798.547 508.449 1796.283 424.44399999999996 1841.194 323.494 1784.055 261.874 1726.509 199.815 1621.828 236.66000000000003 1537.727 227.17399999999998 1469.888 219.522 1405.945 212.12 1337.679 211.52499999999998 1240.071 210.67399999999998 1131.679 167.985 1051 222.93 969.64 278.338 940.995 388.996 933.023 487.108 925.295 582.216 956.202 677.069 1007.5640000000001 757.487 1054.895 831.594 1132.554 876.0070000000001 1209.075 919.326 1281.725 960.453 1356.53 1000.829 1440 1002.288" fill="#3b71cd"></path></g><defs><mask id="SvgjsMask1001"><rect width="1440" height="560" fill="#ffffff"></rect></mask></defs></svg>